<svg xmlns="http://www.w3.org/2000/svg" viewBox="0 0 1000 1000">
	<path d="M375 0h375v125h125v125h125v375H875v125H750v125H625v125H250V875H125V750H0V375h125V250h125V125h125V0z"
		fill="#9C4A00" />
	<path d="M875 250h125v375H875v125H750v125H625v125H250V875h125V750h125V625h125V500h125V375h125V250z"
		fill="#9C4A00" />
	<path d="M375 0h250v125H500v125H375v125H250v125H125v125H0V375h125V250h125V125h125V0z" />
	<path d="M625 0h125v125h125v250H750v125H625V375H500V125h125V0zM375 750h125v125h125v125H250V875h125V750z"
		fill="#9C4A00" />
	<path
		d="M0 375h250v125H125v125H0V375zM500 750h125v125H500V750zM250 750h125v125H250V750zM375 625h125v125H375V625zM500 500h125v125H500V500z" />
	<path d="M0 500h125v125H0V500zM625 375h125v125H625V375z" />
	<path d="M0 375h125v125H0V375z" fill="#9C4A00" />
	<path d="M750 250h125v125H750V250zM500 250h125v125H500V250z" />
	<path d="M125 250h125v125H125V250zM250 125h125v125H250V125zM375 0h125v125H375V0z" fill="#9C4A00" />
</svg>