<svg xmlns="http://www.w3.org/2000/svg" viewBox="0 0 1008 1008">
	<path d="M0 0h1008v1008H0V0z" fill="#109400" />
	<path d="M0 0h882v63H315v63h189v63h63v63H315v126h-63v189h126v126h63v126h-63v63H252v63H0V0z" fill="#109400" />
	<path d="M756 126h189v63h63v252h-63v126h-63v-63H756v-63h-63v-63h-63V252h63v-63h63v-63z" fill="#109400" />
	<path
		d="M882 0h126v189h-63v-63H756v63h-63v63h-63v126h-63V189h-63v-63H315V63h567V0zM189 126h126v63h-63v63h-63v315h-63v126H63V504H0V189h63v63h63v-63h63v-63zM819 567h63v63h63v126h-63v126h-63v63H504V819h252V693h63V567z"
		fill="#109400" />
	<path d="M0 189h63v63h63v189H63v63H0V189z" fill="#109400" />
	<path d="M0 0h882v63H315v63H189v63h-63v63H63v-63H0V0z" fill="#BDF7AD" />
	<path
		d="M945 441h63v567H0v-63h252v-63h126v-63h63V693h63v252h315v-63h63V756h63V630h-63v-63h63V441zM882 0h126v189h-63v-63h-63V0z" />
	<path
		d="M630 378h63v63h63v63h126v63h-63v126h-63v126H567v-63h63v-63h63v-63h-63V378zM63 252h63v189H63V252zM63 567h63v126H63V567zm504-315h63v126h-63V252zM126 504h63v63h-63v-63zM0 441h63v63H0v-63zM0 189h63v63H0v-63z" />
	<path
		d="M0 0h126v63H63v63H0V0zm945 882h63v126h-63V882zM441 945h63v63h-63v-63zM0 945h63v63H0v-63zM945 0h63v63h-63V0z"
		fill="#109400" />
	<path
		d="M315 126h189v63h63v63H315v126h-63v189h126v63H189v63h-63V567h63V252h63v-63h63v-63zM0 504h63v189h63v126H63v126H0V504zM504 819h252v63H567v63h-63V819zM693 189h63v126h-63v63h-63V252h63v-63zM756 126h189v63H756v-63zM756 693h63v126h-63V693zm63-126h63v126h-63V567zM378 630h63v63h-63v-63zm504-126h63v63h-63v-63zM945 189h63v63h-63v-63z"
		fill="#BDF7AD" />
</svg>