<svg xmlns="http://www.w3.org/2000/svg" viewBox="0 0 1400 1400">
	<path fill="#C66300" d="M500 0h400v100h100v100h100V100h100v100h200v300h-200v100h-100v200h100v100h100v400h-100v100H200v-100H100V900h100V800h100V600H200V500H0V200h200V100h100v100h100V100h100V0z"/>
	<path fill="#FF3118" d="M200 800h300v100h400V800h300v100h100v400h-100v100H200v-100H100V900h100V800zM500 0h400v100h100v300H800V200H600v200H400V100h100V0z"/>
	<path fill="#C66300" d="M1100 900h200v400h-100v100h-200v-400h100V900zM100 900h200v100h100v400H200v-100H100V900zM500 900h400v100H800v100H600v-100H500V900zM800 200h100v200H800V200zM500 200h100v200H500V200z"/>
	<path fill="#FF945A" d="M400 600h100v100h400V600h100v200H900v100H500V800H400V600zM600 200h200v200h100v100H800v100H600V500H500V400h100V200zM1100 100h100v100h200v300h-200V300h-100V100zM200 100h100v200H200v200H0V200h200V100zM900 200h100v200H900V200zM400 200h100v200H400V200zM800 1100h100v100H800v-100zM500 1100h100v100H500v-100z"/>
</svg>